# created with pCon.planner

mtllib Abutment8n.mtl

g mesh_0
v 6.9062529 -2.4427563 7.40176
v 6.9062529 -1.6927563 7.40176
v 6.9062529 -1.4427563 7.40176
v 6.9062529 -2.4427563 6.60176
v 6.9062529 -1.4427563 6.60176
v 10.204389 -1.8079296 7.40176
v 10.301076 -1.561306 6.60176
v 11.363165 -11.5 9.30176
v 11.363165 -10 9.30176
v 11.363165 -11.5 4.6017595
v 11.363165 -10 4.6017595
v 11.863165 -9.9 7.40176
v 11.863165 -9.9 6.60176
v 11.963165 -9.9 7.40176
v 11.963165 -9.9 6.60176
v 13.093747 -2.6588283 -8.79824
v 13.093747 -1.6588283 -8.79824
v 13.093747 -2.6588283 -9.59824
v 13.093747 -1.9088283 -9.59824
v 13.093747 -1.6588283 -9.59824
v 13.502525 -1.923103 7.40176
v 13.600327 -1.6765183 6.60176
v 14.777897 -1.9676402 7.40176
v 14.777897 -1.7176402 7.40176
v 15.069074 -1.7278083 6.60176
v 15.069084 -4 6.60176
v 15.069084 -1.7278083 6.60176
v 15.903442 -11.5 4.6017595
v 15.903442 -10 4.6017595
v 16.500515 -1.7777952 -8.79824
v 16.500515 -2.0277952 -9.59824
v 16.800661 -2.0382763 7.40176
v 16.99515 -1.7950681 6.60176
v 17.19744 -9.9 6.60176
v 17.19744 -5 6.60176
v 17.19744 -3.0521321 6.60176
v 17.19744 -1.8021321 6.60176
v 17.550659 -11.5 -6.7982396
v 17.550659 -10 -6.7982396
v 17.550659 -11.5 -11.49824
v 17.550659 -10 -11.49824
v 18.050659 -9.9 -8.79824
v 18.050659 -9.9 -9.59824
v 18.150659 -9.9 -8.79824
v 18.150659 -9.9 -9.59824
v 19.690019 -2.139175 -9.59824
v 19.907283 -1.8967621 -8.79824
v 20.052703 -11.5 -6.7982396
v 20.052703 -10 -6.7982396
v 20.098797 -9.9 7.40176
v 20.098797 -2.1534497 7.40176
v 20.389973 -9.9 6.60176
v 20.389973 -2.9021321 6.60176
v 20.389973 -1.9136178 6.60176
v 20.674215 -1.9235441 -8.79824
v 20.674226 -4 -8.79824
v 20.674226 -1.9235441 -8.79824
v 20.965391 -2.1837122 -9.59824
v 20.965391 -1.9337122 -9.59824
v 21.322773 -11.5 9.30176
v 21.322773 -10 9.30176
v 22.802581 -9.9 -8.79824
v 22.802581 -5 -8.79824
v 22.802581 -3.2478679 -8.79824
v 22.802581 -1.9978679 -8.79824
v 22.951199 -2.0030579 -8.79824
v 22.988155 -2.2543484 -9.59824
v 25.995114 -9.9 -8.79824
v 25.995114 -3.0978679 -8.79824
v 25.995114 -2.1093537 -8.79824
v 26.286291 -9.9 -9.59824
v 26.286291 -2.3695217 -9.59824
v 28.893354 -11.5 -11.49824
v 28.893354 -10 -11.49824
vn -1 0 0
vn -0.93969262 0 -0.34202015
vn -0.82764901 -0.56124604 0
vn -0.81986486 -0.57255708 0
vn -0.42024332 -0.89442718 -0.15295607
vn -0.4202433 -0.8944272 -0.15295606
vn -0.19611571 0.98058076 0
vn -0.19611554 0.9805808 0
vn -0.049389001 0.99861784 -0.017976126
vn -0.049389001 0.99861784 -0.017976128
vn -0.046912063 0.99845546 -0.02976508
vn -0.046912051 0.99845546 -0.029765079
vn -0.046912044 0.99845546 -0.029765079
vn -0.033312678 -0.95395022 0.29810944
vn -0.033312678 -0.95395023 -0.29810941
vn -0.033312674 -0.95395022 0.29810944
vn -0.033312674 -0.95395022 -0.29810944
vn 0 0 1
vn 0 0.99861784 0.052558672
vn 0 0.99875235 0.049937471
vn 0 -1 0
vn 0 1 0
vn 0 0.99875235 -0.049937471
vn 0 0.99861784 -0.052558672
vn 0 0 -1
vn 0.033312648 0.95395022 0.29810944
vn 0.033312649 0.95395023 0.29810941
vn 0.033312648 0.95395022 -0.29810944
vn 0.033312652 0.95395022 0.29810944
vn 0.033312652 0.95395023 0.29810941
vn 0.033312652 0.95395022 -0.29810944
vn 0.034899491 0.99939083 -1.1189339e-09
vn 0.034899495 0.99939083 1.3831143e-08
vn 0.034899495 0.99939083 6.9155716e-09
vn 0.034899495 0.99939083 0
vn 0.034899495 0.99939083 -6.0916943e-10
vn 0.034899499 0.99939083 2.2328692e-09
vn 0.034899499 0.99939083 1.1164346e-09
vn 0.034899499 0.99939083 0
vn 0.034899499 0.99939083 -9.9404865e-11
vn 0.052124616 0.99846036 0.01897181
vn 0.052124616 0.99846036 0.018971808
vn 0.05212462 0.99846036 0.01897181
vn 0.93969254 0 0.34202036
vn 0.93969262 0 0.34202015
usemtl mat_Global_e3b63687
f 25//34 5//35 3//34
f 3//34 24//33 25//34
f 23//17 2//15 5//17
f 5//17 25//17 23//17
f 24//18 3//18 2//18
f 2//18 23//18 24//18
f 5//1 2//1 3//1
f 23//44 25//44 24//44
f 59//38 20//39 17//38
f 17//38 55//37 59//38
f 58//25 19//25 59//25
f 19//25 20//25 59//25
f 55//16 17//14 19//16
f 19//16 58//16 55//16
f 19//1 17//1 20//1
f 55//45 58//45 59//45
f 17//31 30//31 19//31
f 30//31 31//31 19//31
f 30//31 46//28 31//31
f 66//28 70//28 67//28
f 67//28 47//28 66//28
f 46//28 30//31 47//28
f 47//28 67//28 46//28
f 67//28 70//28 72//28
f 72//44 70//44 69//44
f 69//44 68//44 71//44
f 71//44 72//44 69//44
f 71//21 68//21 62//21
f 62//21 44//21 45//21
f 45//21 71//21 62//21
f 16//4 18//4 45//4
f 45//4 44//4 16//4
f 17//1 19//1 16//1
f 19//1 18//1 16//1
f 18//25 19//25 72//25
f 72//25 71//25 45//25
f 45//25 18//25 72//25
f 70//18 17//18 16//18
f 16//18 69//18 70//18
f 69//18 44//18 62//18
f 62//18 68//18 69//18
f 44//18 69//18 16//18
f 4//1 1//1 2//1
f 2//1 5//1 4//1
f 15//3 14//3 1//3
f 1//3 4//3 15//3
f 14//21 15//21 34//21
f 34//21 52//21 50//21
f 50//21 14//21 34//21
f 50//45 52//45 53//45
f 53//45 54//45 51//45
f 51//45 50//45 53//45
f 33//26 22//26 32//29
f 32//29 51//26 33//26
f 22//26 6//27 21//27
f 51//26 54//26 33//26
f 6//27 22//26 7//27
f 7//27 2//30 6//27
f 7//27 5//27 2//30
f 32//29 22//26 21//27
f 51//18 2//18 1//18
f 14//18 50//18 51//18
f 51//18 1//18 14//18
f 15//25 4//25 53//25
f 53//25 34//25 15//25
f 4//25 5//25 54//25
f 54//25 53//25 4//25
f 52//25 34//25 53//25
f 38//1 39//1 41//1
f 41//1 40//1 38//1
f 48//18 49//18 39//18
f 39//18 38//18 48//18
f 28//2 29//2 49//2
f 49//2 48//2 28//2
f 10//25 11//25 29//25
f 29//25 28//25 10//25
f 8//1 9//1 11//1
f 11//1 10//1 8//1
f 60//18 61//18 9//18
f 9//18 8//18 60//18
f 73//45 74//45 61//45
f 61//45 60//45 73//45
f 40//25 41//25 74//25
f 74//25 73//25 40//25
f 41//22 39//22 49//22
f 49//22 74//22 41//22
f 61//22 74//22 49//22
f 49//22 29//22 61//22
f 29//22 11//22 9//22
f 9//22 61//22 29//22
f 8//21 10//21 28//21
f 28//21 60//21 8//21
f 48//21 38//21 40//21
f 40//21 73//21 48//21
f 60//21 28//21 48//21
f 48//21 73//21 60//21
f 39//8 42//8 41//8
f 42//8 43//8 41//8
f 49//20 62//20 42//20
f 42//20 39//20 49//20
f 29//10 34//9 62//10
f 62//10 49//10 29//10
f 11//23 13//23 29//23
f 13//23 34//23 29//23
f 9//7 12//7 13//7
f 13//7 11//7 9//7
f 61//19 50//19 9//19
f 50//19 12//19 9//19
f 74//41 71//43 50//41
f 50//41 61//42 74//41
f 41//24 43//24 71//24
f 71//24 74//24 41//24
f 34//22 13//22 12//22
f 12//22 50//22 34//22
f 62//22 34//22 50//22
f 50//22 71//22 62//22
f 62//22 71//22 43//22
f 43//22 42//22 62//22
f 9//21 11//21 29//21
f 29//21 61//21 9//21
f 49//21 39//21 41//21
f 41//21 74//21 49//21
f 61//21 29//21 49//21
f 49//21 74//21 61//21
f 37//36 65//32 57//36
f 57//36 27//40 37//36
f 36//45 64//45 65//45
f 65//45 37//45 36//45
f 53//12 69//13 64//12
f 64//12 36//11 53//12
f 52//45 68//45 69//45
f 69//45 53//45 52//45
f 34//21 62//21 52//21
f 62//21 68//21 52//21
f 35//2 63//2 62//2
f 62//2 34//2 35//2
f 26//6 56//6 63//6
f 63//6 35//5 26//6
f 27//2 57//2 26//2
f 57//2 56//2 26//2
f 57//25 65//25 64//25
f 64//25 63//25 56//25
f 56//25 57//25 64//25
f 69//25 68//25 63//25
f 63//25 64//25 69//25
f 68//25 62//25 63//25
f 36//18 37//18 27//18
f 27//18 26//18 36//18
f 53//18 36//18 35//18
f 35//18 52//18 53//18
f 52//18 35//18 34//18
f 26//18 35//18 36//18
g mesh_1
v 78.093747 -2.4427563 -9.59824
v 78.093747 -1.6927563 -9.59824
v 78.093747 -1.4427563 -9.59824
v 78.093747 -2.4427563 -8.79824
v 78.093747 -1.4427563 -8.79824
v 74.795611 -1.8079296 -9.59824
v 74.698924 -1.561306 -8.79824
v 73.636835 -11.5 -11.59824
v 73.636835 -10 -11.59824
v 73.636835 -11.5 -7.79824
v 73.636835 -10 -7.79824
v 73.136835 -9.9 -9.59824
v 73.136835 -9.9 -8.79824
v 73.036835 -9.9 -9.59824
v 73.036835 -9.9 -8.79824
v 71.906253 -2.6588283 6.60176
v 71.906253 -1.6588283 6.60176
v 71.906253 -2.6588283 7.40176
v 71.906253 -1.9088283 7.40176
v 71.906253 -1.6588283 7.40176
v 71.497475 -1.923103 -9.59824
v 71.399673 -1.6765183 -8.79824
v 70.222103 -1.9676402 -9.59824
v 70.222103 -1.7176402 -9.59824
v 69.930926 -1.7278083 -8.79824
v 69.930916 -4.1 -8.79824
v 69.930916 -1.7278083 -8.79824
v 69.566946 -11.5 -7.79824
v 69.566946 -10 -7.79824
v 68.499485 -1.7777952 6.60176
v 68.499485 -2.0277952 7.40176
v 68.199339 -2.0382763 -9.59824
v 68.00485 -1.7950681 -8.79824
v 67.80256 -9.9 -8.79824
v 67.80256 -5.1 -8.79824
v 67.80256 -3.152132 -8.79824
v 67.80256 -1.8021321 -8.79824
v 67.449341 -11.5 5.60176
v 67.449341 -10 5.60176
v 67.449341 -11.5 9.40176
v 67.449341 -10 9.40176
v 66.949341 -9.9 6.60176
v 66.949341 -9.9 7.40176
v 66.849341 -9.9 6.60176
v 66.849341 -9.9 7.40176
v 65.309981 -2.139175 7.40176
v 65.092717 -1.8967621 6.60176
v 64.901203 -9.9 -9.59824
v 64.901203 -2.1534497 -9.59824
v 64.689745 -11.5 5.60176
v 64.689745 -10 5.60176
v 64.610027 -9.9 -8.79824
v 64.610027 -3.0021321 -8.79824
v 64.610027 -1.9136178 -8.79824
v 64.325785 -1.9235441 6.60176
v 64.325774 -4.1 6.60176
v 64.325774 -1.9235441 6.60176
v 64.034609 -2.1837122 7.40176
v 64.034609 -1.9337122 7.40176
v 63.713624 -11.5 -11.59824
v 63.713624 -10 -11.59824
v 62.197419 -9.9 6.60176
v 62.197419 -5.1 6.60176
v 62.197419 -3.3478679 6.60176
v 62.197419 -1.9978679 6.60176
v 62.048801 -2.0030579 6.60176
v 62.011845 -2.2543484 7.40176
v 59.004886 -9.9 6.60176
v 59.004886 -3.1978679 6.60176
v 59.004886 -2.1093537 6.60176
v 58.713709 -9.9 7.40176
v 58.713709 -2.3695217 7.40176
v 56.070249 -11.5 9.40176
v 56.070249 -10 9.40176
vn 1 0 0
vn 0.93969262 0 0.34202015
vn 0.82764901 -0.56124604 0
vn 0.81986486 -0.57255708 0
vn 0.42024332 -0.89442718 0.15295607
vn 0.4202433 -0.8944272 0.15295606
vn 0.19611571 0.98058076 0
vn 0.19611554 0.9805808 0
vn 0.046925872 0.99875235 0.017079621
vn 0.046912066 0.99845546 0.02976508
vn 0.046912051 0.99845546 0.029765079
vn 0.04691204 0.99845546 0.029765077
vn 0.033312678 -0.95395022 -0.29810944
vn 0.033312678 -0.95395023 0.29810941
vn 0.033312674 -0.95395022 -0.29810944
vn 0.033312674 -0.95395022 0.29810944
vn 0 0 -1
vn 0 0.99503722 -0.099503437
vn 0 0.99875235 -0.049937471
vn 0 -1 0
vn 0 1 0
vn 0 0.99875235 0.049937471
vn 0 0.99503722 0.099503437
vn 0 0 1
vn -0.033312648 0.95395022 -0.29810944
vn -0.033312649 0.95395023 -0.29810941
vn -0.033312648 0.95395022 0.29810944
vn -0.033312652 0.95395022 -0.29810944
vn -0.033312652 0.95395023 -0.29810941
vn -0.033312652 0.95395022 0.29810944
vn -0.034899491 0.99939083 1.1189339e-09
vn -0.034899495 0.99939083 -1.3831143e-08
vn -0.034899495 0.99939083 -6.9155716e-09
vn -0.034899495 0.99939083 0
vn -0.034899495 0.99939083 6.0916942e-10
vn -0.034899499 0.99939083 -2.2328692e-09
vn -0.034899499 0.99939083 -1.1164346e-09
vn -0.034899499 0.99939083 0
vn -0.034899499 0.99939083 9.9404861e-11
vn -0.05212462 0.99846036 -0.01897181
vn -0.052124624 0.99846036 -0.018971812
vn -0.052124627 0.99846036 -0.018971814
vn -0.93969254 0 -0.34202036
vn -0.93969262 0 -0.34202015
usemtl mat_Global_e3b63687
f 99//78 79//79 77//78
f 77//78 98//77 99//78
f 97//61 76//59 79//61
f 79//61 99//61 97//61
f 98//62 77//62 76//62
f 76//62 97//62 98//62
f 79//46 76//46 77//46
f 97//88 99//88 98//88
f 133//82 94//83 91//82
f 91//82 129//81 133//82
f 132//69 93//69 133//69
f 93//69 94//69 133//69
f 129//60 91//58 93//60
f 93//60 132//60 129//60
f 93//46 91//46 94//46
f 129//89 132//89 133//89
f 91//75 104//75 93//75
f 104//75 105//75 93//75
f 104//75 120//72 105//75
f 140//72 144//72 141//72
f 141//72 121//72 140//72
f 120//72 104//75 121//72
f 121//72 141//72 120//72
f 141//72 144//72 146//72
f 146//88 144//88 143//88
f 143//88 142//88 145//88
f 145//88 146//88 143//88
f 145//65 142//65 136//65
f 136//65 118//65 119//65
f 119//65 145//65 136//65
f 90//49 92//49 119//49
f 119//49 118//49 90//49
f 91//46 93//46 90//46
f 93//46 92//46 90//46
f 92//69 93//69 146//69
f 146//69 145//69 119//69
f 119//69 92//69 146//69
f 144//62 91//62 90//62
f 90//62 143//62 144//62
f 143//62 118//62 136//62
f 136//62 142//62 143//62
f 118//62 143//62 90//62
f 78//46 75//46 76//46
f 76//46 79//46 78//46
f 89//48 88//48 75//48
f 75//48 78//48 89//48
f 88//65 89//65 108//65
f 108//65 126//65 122//65
f 122//65 88//65 108//65
f 122//89 126//89 127//89
f 127//89 128//89 123//89
f 123//89 122//89 127//89
f 107//70 96//70 106//73
f 106//73 123//70 107//70
f 96//70 80//71 95//71
f 123//70 128//70 107//70
f 80//71 96//70 81//71
f 81//71 76//74 80//71
f 81//71 79//71 76//74
f 106//73 96//70 95//71
f 123//62 76//62 75//62
f 88//62 122//62 123//62
f 123//62 75//62 88//62
f 89//69 78//69 127//69
f 127//69 108//69 89//69
f 78//69 79//69 128//69
f 128//69 127//69 78//69
f 126//69 108//69 127//69
f 112//46 113//46 115//46
f 115//46 114//46 112//46
f 124//62 125//62 113//62
f 113//62 112//62 124//62
f 102//47 103//47 125//47
f 125//47 124//47 102//47
f 84//69 85//69 103//69
f 103//69 102//69 84//69
f 82//46 83//46 85//46
f 85//46 84//46 82//46
f 134//62 135//62 83//62
f 83//62 82//62 134//62
f 147//89 148//89 135//89
f 135//89 134//89 147//89
f 114//69 115//69 148//69
f 148//69 147//69 114//69
f 115//66 113//66 125//66
f 125//66 148//66 115//66
f 135//66 148//66 125//66
f 125//66 103//66 135//66
f 103//66 85//66 83//66
f 83//66 135//66 103//66
f 82//65 84//65 102//65
f 102//65 134//65 82//65
f 124//65 112//65 114//65
f 114//65 147//65 124//65
f 134//65 102//65 124//65
f 124//65 147//65 134//65
f 113//53 116//53 117//53
f 117//53 115//53 113//53
f 125//63 136//63 116//63
f 116//63 113//63 125//63
f 103//54 108//54 136//54
f 136//54 125//54 103//54
f 85//68 87//68 103//68
f 87//68 108//68 103//68
f 83//52 86//52 85//52
f 86//52 87//52 85//52
f 135//64 122//64 83//64
f 122//64 86//64 83//64
f 148//86 145//87 122//86
f 122//86 135//85 148//86
f 115//67 117//67 145//67
f 145//67 148//67 115//67
f 108//66 87//66 86//66
f 86//66 122//66 108//66
f 136//66 108//66 122//66
f 122//66 145//66 136//66
f 136//66 145//66 117//66
f 117//66 116//66 136//66
f 83//65 85//65 103//65
f 103//65 135//65 83//65
f 125//65 113//65 115//65
f 115//65 148//65 125//65
f 135//65 103//65 125//65
f 125//65 148//65 135//65
f 111//80 139//76 131//80
f 131//80 101//84 111//80
f 110//89 138//89 139//89
f 139//89 111//89 110//89
f 127//56 143//55 138//56
f 138//56 110//57 127//56
f 126//89 142//89 143//89
f 143//89 127//89 126//89
f 108//65 136//65 126//65
f 136//65 142//65 126//65
f 109//47 137//47 136//47
f 136//47 108//47 109//47
f 100//51 130//51 137//51
f 137//51 109//50 100//51
f 101//47 131//47 100//47
f 131//47 130//47 100//47
f 131//69 139//69 138//69
f 138//69 137//69 130//69
f 130//69 131//69 138//69
f 143//69 142//69 137//69
f 137//69 138//69 143//69
f 142//69 136//69 137//69
f 110//62 111//62 101//62
f 101//62 100//62 110//62
f 127//62 110//62 109//62
f 109//62 126//62 127//62
f 126//62 109//62 108//62
f 100//62 109//62 110//62
