# created with pCon.planner

mtllib piers1n.mtl

g mesh_0
v 19 -10.5 3.90176
v 19 -9 3.90176
v 19 -10.5 -6.09824
v 19 -9 -6.09824
v 21.5 -9 0.90175996
v 21.5 -1 0.90175996
v 21.5 -9 -3.09824
v 21.5 -1 -3.09824
v 21.506156 -9 0.97997725
v 21.506156 -1 0.97997725
v 21.506156 -9 0.82354267
v 21.506156 -1 0.82354267
v 21.506156 -9 -3.0200228
v 21.506156 -1 -3.0200228
v 21.506156 -9 -3.1764573
v 21.506156 -1 -3.1764573
v 21.524472 -9 1.0562685
v 21.524472 -1 1.0562685
v 21.524472 -9 0.74725154
v 21.524472 -1 0.74725154
v 21.524472 -9 -2.9437316
v 21.524472 -1 -2.9437316
v 21.524472 -9 -3.2527486
v 21.524472 -1 -3.2527486
v 21.554497 -9 1.1287553
v 21.554497 -1 1.1287553
v 21.554497 -9 0.67476472
v 21.554497 -1 0.67476472
v 21.554497 -9 -2.8712448
v 21.554497 -1 -2.8712448
v 21.554497 -9 -3.3252354
v 21.554497 -1 -3.3252354
v 21.595492 -9 1.1956525
v 21.595492 -1 1.1956525
v 21.595492 -9 0.60786726
v 21.595492 -1 0.60786726
v 21.595492 -9 -2.8043473
v 21.595492 -1 -2.8043473
v 21.595492 -9 -3.3921326
v 21.595492 -1 -3.3921326
v 21.646447 -9 1.2553134
v 21.646447 -1 1.2553134
v 21.646447 -9 0.54820662
v 21.646447 -1 0.54820662
v 21.646447 -9 -2.7446867
v 21.646447 -1 -2.7446867
v 21.646447 -9 -3.4517935
v 21.646447 -1 -3.4517935
v 21.706107 -9 1.3062685
v 21.706107 -1 1.3062685
v 21.706107 -9 0.49725154
v 21.706107 -1 0.49725154
v 21.706107 -9 -2.6937316
v 21.706107 -1 -2.6937316
v 21.706107 -9 -3.5027486
v 21.706107 -1 -3.5027486
v 21.773005 -9 1.3472634
v 21.773005 -1 1.3472634
v 21.773005 -9 0.45625666
v 21.773005 -1 0.45625666
v 21.773005 -9 -2.6527367
v 21.773005 -1 -2.6527367
v 21.773005 -9 -3.5437435
v 21.773005 -1 -3.5437435
v 21.845492 -9 1.3772883
v 21.845492 -1 1.3772883
v 21.845492 -9 0.42623176
v 21.845492 -1 0.42623176
v 21.845492 -9 -2.6227118
v 21.845492 -1 -2.6227118
v 21.845492 -9 -3.5737684
v 21.845492 -1 -3.5737684
v 21.921783 -9 1.3956042
v 21.921783 -1 1.3956042
v 21.921783 -9 0.40791584
v 21.921783 -1 0.40791584
v 21.921783 -9 -2.6043959
v 21.921783 -1 -2.6043959
v 21.921783 -9 -3.5920843
v 21.921783 -1 -3.5920843
v 22 -1 1.40176
v 22 -9 0.40175996
v 22 -1 -2.59824
v 22 -9 -3.59824
v 22 -9 1.40176
v 22 -1 1.40176
v 22 -9 -2.59824
v 22 -1 -2.59824
v 22 -9 0.40175996
v 22 -1 0.40175996
v 22 -9 -3.59824
v 22 -1 -3.59824
v 22 -9 1.40176
v 22 -1 0.40175996
v 22 -9 -2.59824
v 22 -1 -3.59824
v 22.078217 -9 1.3956042
v 22.078217 -1 1.3956042
v 22.078217 -9 0.40791584
v 22.078217 -1 0.40791584
v 22.078217 -9 -2.6043959
v 22.078217 -1 -2.6043959
v 22.078217 -9 -3.5920843
v 22.078217 -1 -3.5920843
v 22.154508 -9 1.3772883
v 22.154508 -1 1.3772883
v 22.154508 -9 0.42623176
v 22.154508 -1 0.42623176
v 22.154508 -9 -2.6227118
v 22.154508 -1 -2.6227118
v 22.154508 -9 -3.5737684
v 22.154508 -1 -3.5737684
v 22.226995 -9 1.3472634
v 22.226995 -1 1.3472634
v 22.226995 -9 0.45625666
v 22.226995 -1 0.45625666
v 22.226995 -9 -2.6527367
v 22.226995 -1 -2.6527367
v 22.226995 -9 -3.5437435
v 22.226995 -1 -3.5437435
v 22.293893 -9 1.3062685
v 22.293893 -1 1.3062685
v 22.293893 -9 0.49725154
v 22.293893 -1 0.49725154
v 22.293893 -9 -2.6937316
v 22.293893 -1 -2.6937316
v 22.293893 -9 -3.5027486
v 22.293893 -1 -3.5027486
v 22.353553 -9 1.2553134
v 22.353553 -1 1.2553134
v 22.353553 -9 0.54820662
v 22.353553 -1 0.54820662
v 22.353553 -9 -2.7446867
v 22.353553 -1 -2.7446867
v 22.353553 -9 -3.4517935
v 22.353553 -1 -3.4517935
v 22.404508 -9 1.1956525
v 22.404508 -1 1.1956525
v 22.404508 -9 0.60786726
v 22.404508 -1 0.60786726
v 22.404508 -9 -2.8043473
v 22.404508 -1 -2.8043473
v 22.404508 -9 -3.3921326
v 22.404508 -1 -3.3921326
v 22.445503 -9 1.1287553
v 22.445503 -1 1.1287553
v 22.445503 -9 0.67476472
v 22.445503 -1 0.67476472
v 22.445503 -9 -2.8712448
v 22.445503 -1 -2.8712448
v 22.445503 -9 -3.3252354
v 22.445503 -1 -3.3252354
v 22.475528 -9 1.0562685
v 22.475528 -1 1.0562685
v 22.475528 -9 0.74725154
v 22.475528 -1 0.74725154
v 22.475528 -9 -2.9437316
v 22.475528 -1 -2.9437316
v 22.475528 -9 -3.2527486
v 22.475528 -1 -3.2527486
v 22.493844 -9 0.97997725
v 22.493844 -1 0.97997725
v 22.493844 -9 0.82354267
v 22.493844 -1 0.82354267
v 22.493844 -9 -3.0200228
v 22.493844 -1 -3.0200228
v 22.493844 -9 -3.1764573
v 22.493844 -1 -3.1764573
v 22.5 -9 0.90175996
v 22.5 -1 0.90175996
v 22.5 -9 -3.09824
v 22.5 -1 -3.09824
v 25 -10.5 3.90176
v 25 -9 3.90176
v 25 -10.5 -6.09824
v 25 -9 -6.09824
vn -1 0 0
vn -0.99691732 0 0.078459256
vn -0.99691733 0 0.078459116
vn -0.99691733 0 -0.078459116
vn -0.99691732 0 -0.078459256
vn -0.99145109 0 0.13047885
vn -0.9914511 0 0.1304788
vn -0.9914511 0 -0.1304788
vn -0.99145109 0 -0.13047885
vn -0.98324614 0 0.1822828
vn -0.98324614 0 -0.1822828
vn -0.9832461 0 0.18228305
vn -0.9832461 0 -0.18228305
vn -0.95883339 0 0.28396925
vn -0.95883339 0 -0.28396925
vn -0.9588333 0 0.28396953
vn -0.9588333 0 -0.28396953
vn -0.94262562 0 0.33385169
vn -0.94262562 0 -0.33385169
vn -0.94262556 0 0.33385184
vn -0.94262556 0 -0.33385184
vn -0.90260608 0 0.43046749
vn -0.90260608 0 -0.43046749
vn -0.8787943 0 0.47720077
vn -0.8787943 0 -0.47720077
vn -0.8241533 0 0.56636679
vn -0.8241533 0 -0.56636679
vn -0.79332408 0 0.60879955
vn -0.79332408 0 -0.60879955
vn -0.72540716 0 0.68832002
vn -0.72540716 0 -0.68832002
vn -0.68831941 0 0.72540774
vn -0.68831941 0 -0.72540774
vn -0.60879941 0 0.79332419
vn -0.60879941 0 -0.79332419
vn -0.56636721 0 0.82415301
vn -0.56636721 0 -0.82415301
vn -0.47720138 0 0.87879397
vn -0.47720138 0 -0.87879397
vn -0.43046764 0 0.90260601
vn -0.43046764 0 -0.90260601
vn -0.33385194 0 0.94262553
vn -0.33385194 0 -0.94262553
vn -0.33385136 0 0.94262573
vn -0.33385136 0 -0.94262573
vn -0.28397003 0 0.95883316
vn -0.28397003 0 -0.95883316
vn -0.28396886 0 0.9588335
vn -0.28396886 0 -0.9588335
vn -0.1564346 0 0.98768832
vn -0.1564346 0 -0.98768832
vn -0.15643457 0 0.98768832
vn -0.15643457 0 -0.98768832
vn 0 0 1
vn 0 0 1
vn 0 0 1
vn 0 -1 0
vn 0 1 0
vn 0 0 -1
vn 0 0 -1
vn 0 0 -1
vn 0.15643457 0 0.98768832
vn 0.15643457 0 -0.98768832
vn 0.1564346 0 0.98768832
vn 0.1564346 0 -0.98768832
vn 0.28396886 0 0.9588335
vn 0.28396886 0 -0.9588335
vn 0.28397003 0 0.95883316
vn 0.28397003 0 -0.95883316
vn 0.33385136 0 0.94262573
vn 0.33385136 0 -0.94262573
vn 0.33385194 0 0.94262553
vn 0.33385194 0 -0.94262553
vn 0.43046764 0 0.90260601
vn 0.43046764 0 -0.90260601
vn 0.47720138 0 0.87879397
vn 0.47720138 0 -0.87879397
vn 0.56636721 0 0.82415301
vn 0.56636721 0 -0.82415301
vn 0.60879941 0 0.79332419
vn 0.60879941 0 -0.79332419
vn 0.68831941 0 0.72540774
vn 0.68831941 0 -0.72540774
vn 0.72540716 0 0.68832002
vn 0.72540716 0 -0.68832002
vn 0.79332408 0 0.60879955
vn 0.79332408 0 -0.60879955
vn 0.8241533 0 0.56636679
vn 0.8241533 0 -0.56636679
vn 0.8787943 0 0.47720077
vn 0.8787943 0 -0.47720077
vn 0.90260608 0 0.43046749
vn 0.90260608 0 -0.43046749
vn 0.94262556 0 0.33385184
vn 0.94262556 0 -0.33385184
vn 0.94262562 0 0.33385169
vn 0.94262562 0 -0.33385169
vn 0.9588333 0 0.28396953
vn 0.9588333 0 -0.28396953
vn 0.95883339 0 0.28396925
vn 0.95883339 0 -0.28396925
vn 0.9832461 0 0.18228305
vn 0.9832461 0 -0.18228305
vn 0.98324614 0 0.1822828
vn 0.98324614 0 -0.1822828
vn 0.99145109 0 0.13047885
vn 0.9914511 0 0.1304788
vn 0.9914511 0 -0.1304788
vn 0.99145109 0 -0.13047885
vn 0.99691732 0 0.078459256
vn 0.99691733 0 0.078459116
vn 0.99691733 0 -0.078459116
vn 0.99691732 0 -0.078459256
vn 1 0 0
usemtl mat_Global_e3b63687
f 6//2 5//2 9//7
f 9//7 10//10 6//2
f 18//18 17//14 25//22
f 25//22 26//24 18//18
f 10//10 9//7 17//14
f 17//14 18//18 10//10
f 26//24 25//22 33//26
f 33//26 34//28 26//24
f 42//32 41//30 49//34
f 49//34 50//36 42//32
f 58//40 57//38 65//42
f 65//42 66//46 58//40
f 50//36 49//34 57//38
f 57//38 58//40 50//36
f 34//28 33//26 41//30
f 41//30 42//32 34//28
f 66//46 65//42 73//52
f 73//52 74//52 66//46
f 86//55 74//52 73//52
f 73//52 85//55 86//55
f 113//76 121//80 122//78
f 122//78 114//74 113//76
f 97//62 105//72 106//68
f 106//68 98//62 97//62
f 105//72 113//76 114//74
f 114//74 106//68 105//72
f 121//80 129//84 130//82
f 130//82 122//78 121//80
f 153//100 161//107 162//104
f 162//104 154//96 153//100
f 137//88 145//92 146//90
f 146//90 138//86 137//88
f 145//92 153//100 154//96
f 154//96 146//90 145//92
f 129//84 137//88 138//86
f 138//86 130//82 129//84
f 161//107 169//110 170//110
f 170//110 162//104 161//107
f 86//55 85//55 97//62
f 97//62 98//62 86//55
f 170//112 169//112 163//109
f 163//109 164//103 170//112
f 156//95 155//99 147//93
f 147//93 148//91 156//95
f 164//103 163//109 155//99
f 155//99 156//95 164//103
f 148//91 147//93 139//89
f 139//89 140//87 148//91
f 132//83 131//85 123//81
f 123//81 124//79 132//83
f 116//75 115//77 107//71
f 107//71 108//67 116//75
f 124//79 123//81 115//77
f 115//77 116//75 124//79
f 140//87 139//89 131//85
f 131//85 132//83 140//87
f 108//67 107//71 99//65
f 99//65 100//65 108//67
f 90//60 100//65 99//65
f 99//65 89//60 90//60
f 59//39 51//35 52//37
f 52//37 60//41 59//39
f 75//51 67//45 68//49
f 68//49 76//51 75//51
f 67//45 59//39 60//41
f 60//41 68//49 67//45
f 51//35 43//31 44//33
f 44//33 52//37 51//35
f 19//17 11//9 12//13
f 12//13 20//21 19//17
f 35//27 27//23 28//25
f 28//25 36//29 35//27
f 27//23 19//17 20//21
f 20//21 28//25 27//23
f 43//31 35//27 36//29
f 36//29 44//33 43//31
f 11//9 5//4 6//4
f 6//4 12//13 11//9
f 90//60 89//60 75//51
f 75//51 76//51 90//60
f 34//58 50//58 18//58
f 18//58 26//58 34//58
f 20//58 10//58 18//58
f 18//58 50//58 20//58
f 50//58 34//58 42//58
f 66//58 74//58 81//58
f 81//58 98//58 66//58
f 50//58 58//58 66//58
f 66//58 98//58 50//58
f 36//58 50//58 100//58
f 100//58 60//58 36//58
f 20//58 12//58 6//58
f 6//58 10//58 20//58
f 36//58 28//58 20//58
f 20//58 50//58 36//58
f 52//58 44//58 36//58
f 36//58 60//58 52//58
f 100//58 68//58 60//58
f 94//58 76//58 68//58
f 68//58 100//58 94//58
f 138//58 98//58 114//58
f 98//58 106//58 114//58
f 138//58 114//58 122//58
f 122//58 130//58 138//58
f 138//58 146//58 154//58
f 154//58 100//58 138//58
f 154//58 162//58 170//58
f 170//58 100//58 154//58
f 138//58 100//58 50//58
f 50//58 98//58 138//58
f 124//58 116//58 100//58
f 100//58 156//58 124//58
f 100//58 116//58 108//58
f 124//58 156//58 140//58
f 140//58 132//58 124//58
f 140//58 156//58 148//58
f 156//58 100//58 170//58
f 170//58 164//58 156//58
f 35//57 43//57 27//57
f 43//57 19//57 27//57
f 11//57 19//57 5//57
f 19//57 9//57 5//57
f 19//57 43//57 67//57
f 67//57 33//57 19//57
f 75//57 82//57 67//57
f 51//57 59//57 67//57
f 67//57 43//57 51//57
f 99//57 33//57 67//57
f 67//57 82//57 99//57
f 25//57 17//57 33//57
f 17//57 9//57 33//57
f 33//57 9//57 19//57
f 49//57 41//57 33//57
f 33//57 97//57 49//57
f 65//57 57//57 49//57
f 49//57 97//57 65//57
f 93//57 73//57 65//57
f 65//57 97//57 93//57
f 99//57 107//57 115//57
f 115//57 155//57 99//57
f 115//57 123//57 139//57
f 123//57 131//57 139//57
f 147//57 155//57 139//57
f 155//57 115//57 139//57
f 155//57 163//57 169//57
f 169//57 153//57 155//57
f 121//57 99//57 155//57
f 155//57 153//57 121//57
f 121//57 113//57 97//57
f 97//57 99//57 121//57
f 97//57 113//57 105//57
f 121//57 153//57 137//57
f 137//57 129//57 121//57
f 137//57 153//57 145//57
f 161//57 153//57 169//57
f 97//57 33//57 99//57
f 175//114 176//114 174//114
f 174//114 173//114 175//114
f 3//59 4//59 176//59
f 176//59 175//59 3//59
f 1//1 2//1 4//1
f 4//1 3//1 1//1
f 173//56 174//56 2//56
f 2//56 1//56 173//56
f 176//58 4//58 2//58
f 2//58 174//58 176//58
f 1//57 3//57 175//57
f 175//57 173//57 1//57
f 8//3 7//3 13//6
f 13//6 14//12 8//3
f 22//20 21//16 29//22
f 29//22 30//24 22//20
f 14//12 13//6 21//16
f 21//16 22//20 14//12
f 30//24 29//22 37//26
f 37//26 38//28 30//24
f 46//32 45//30 53//34
f 53//34 54//36 46//32
f 62//40 61//38 69//44
f 69//44 70//48 62//40
f 54//36 53//34 61//38
f 61//38 62//40 54//36
f 38//28 37//26 45//30
f 45//30 46//32 38//28
f 70//48 69//44 77//50
f 77//50 78//50 70//48
f 88//54 78//50 77//50
f 77//50 87//54 88//54
f 117//76 125//80 126//78
f 126//78 118//74 117//76
f 101//64 109//70 110//66
f 110//66 102//64 101//64
f 109//70 117//76 118//74
f 118//74 110//66 109//70
f 125//80 133//84 134//82
f 134//82 126//78 125//80
f 157//98 165//106 166//102
f 166//102 158//94 157//98
f 141//88 149//92 150//90
f 150//90 142//86 141//88
f 149//92 157//98 158//94
f 158//94 150//90 149//92
f 133//84 141//88 142//86
f 142//86 134//82 133//84
f 165//106 171//111 172//111
f 172//111 166//102 165//106
f 88//54 87//54 101//64
f 101//64 102//64 88//54
f 172//113 171//113 167//108
f 167//108 168//105 172//113
f 160//97 159//101 151//93
f 151//93 152//91 160//97
f 168//105 167//108 159//101
f 159//101 160//97 168//105
f 152//91 151//93 143//89
f 143//89 144//87 152//91
f 136//83 135//85 127//81
f 127//81 128//79 136//83
f 120//75 119//77 111//73
f 111//73 112//69 120//75
f 128//79 127//81 119//77
f 119//77 120//75 128//79
f 144//87 143//89 135//85
f 135//85 136//83 144//87
f 112//69 111//73 103//63
f 103//63 104//63 112//69
f 92//61 104//63 103//63
f 103//63 91//61 92//61
f 63//39 55//35 56//37
f 56//37 64//41 63//39
f 79//53 71//43 72//47
f 72//47 80//53 79//53
f 71//43 63//39 64//41
f 64//41 72//47 71//43
f 55//35 47//31 48//33
f 48//33 56//37 55//35
f 23//15 15//8 16//11
f 16//11 24//19 23//15
f 39//27 31//23 32//25
f 32//25 40//29 39//27
f 31//23 23//15 24//19
f 24//19 32//25 31//23
f 47//31 39//27 40//29
f 40//29 48//33 47//31
f 15//8 7//5 8//5
f 8//5 16//11 15//8
f 92//61 91//61 79//53
f 79//53 80//53 92//61
f 38//58 46//58 30//58
f 46//58 22//58 30//58
f 14//58 22//58 8//58
f 22//58 16//58 8//58
f 22//58 46//58 70//58
f 70//58 40//58 22//58
f 78//58 83//58 70//58
f 54//58 62//58 70//58
f 70//58 46//58 54//58
f 102//58 40//58 70//58
f 70//58 83//58 102//58
f 32//58 24//58 40//58
f 24//58 16//58 40//58
f 40//58 16//58 22//58
f 56//58 48//58 40//58
f 40//58 104//58 56//58
f 72//58 64//58 56//58
f 56//58 104//58 72//58
f 96//58 80//58 72//58
f 72//58 104//58 96//58
f 102//58 110//58 118//58
f 118//58 158//58 102//58
f 118//58 126//58 142//58
f 126//58 134//58 142//58
f 150//58 158//58 142//58
f 158//58 118//58 142//58
f 158//58 166//58 172//58
f 172//58 160//58 158//58
f 128//58 102//58 158//58
f 158//58 160//58 128//58
f 128//58 120//58 104//58
f 104//58 102//58 128//58
f 104//58 120//58 112//58
f 128//58 160//58 144//58
f 144//58 136//58 128//58
f 144//58 160//58 152//58
f 168//58 160//58 172//58
f 104//58 40//58 102//58
f 15//57 39//57 21//57
f 21//57 13//57 15//57
f 23//57 31//57 39//57
f 39//57 15//57 23//57
f 39//57 47//57 55//57
f 55//57 45//57 39//57
f 71//57 79//57 84//57
f 84//57 45//57 71//57
f 55//57 63//57 71//57
f 71//57 45//57 55//57
f 7//57 15//57 13//57
f 37//57 29//57 45//57
f 29//57 21//57 45//57
f 53//57 45//57 61//57
f 77//57 69//57 61//57
f 61//57 45//57 77//57
f 39//57 45//57 21//57
f 77//57 45//57 103//57
f 45//57 84//57 103//57
f 103//57 111//57 143//57
f 111//57 135//57 143//57
f 119//57 127//57 111//57
f 127//57 135//57 111//57
f 143//57 151//57 159//57
f 159//57 167//57 171//57
f 171//57 143//57 159//57
f 101//57 77//57 171//57
f 77//57 143//57 171//57
f 125//57 117//57 101//57
f 101//57 141//57 125//57
f 101//57 117//57 109//57
f 95//57 77//57 101//57
f 141//57 101//57 157//57
f 157//57 149//57 141//57
f 141//57 133//57 125//57
f 157//57 101//57 171//57
f 171//57 165//57 157//57
f 77//57 103//57 143//57
