# created with pCon.planner

mtllib road1n.mtl

g mesh_0
v -40 -0.237 8.6017598
v -40 -0.271 6.9017603
v -40 -0.275 6.7017603
v -40 -2.27 6.5017603
v -40 -3.08 6.4017598
v -40 -3.08 -1.09824
v -40 -0.080000008 -1.09824
v -40 -3.08 -8.5982402
v -40 -2.27 -8.6982402
v -40 -0.275 -8.8982402
v -40 -0.271 -9.0982402
v -40 -0.237 -10.798239
v 0 -0.237 8.6017598
v 0 -0.271 6.9017603
v 0 -0.275 6.7017603
v 0 -2.27 6.5017603
v 0 -3.08 6.4017598
v 0 -3.08 -1.09824
v 0 -0.080000008 -1.09824
v 0 -3.08 -8.5982402
v 0 -2.27 -8.6982402
v 0 -0.275 -8.8982402
v 0 -0.271 -9.0982402
v 0 -0.237 -10.798239
v 60 -0.237 8.6017598
v 60 -0.271 6.9017603
v 60 -0.275 6.7017603
v 60 -2.27 6.5017603
v 60 -3.08 6.4017598
v 60 -3.08 -1.09824
v 60 -0.080000008 -1.09824
v 60 -3.08 -8.5982402
v 60 -2.27 -8.6982402
v 60 -0.275 -8.8982402
v 60 -0.271 -9.0982402
v 60 -0.237 -10.798239
v 80 -0.237 8.6017598
v 80 -0.271 6.9017603
v 80 -0.275 6.7017603
v 80 -2.27 6.5017603
v 80 -3.08 6.4017598
v 80 -3.08 -1.09824
v 80 -0.080000008 -1.09824
v 80 -3.08 -8.5982402
v 80 -2.27 -8.6982402
v 80 -0.275 -8.8982402
v 80 -0.271 -9.0982402
v 80 -0.237 -10.798239
vn -1 0 0
vn 0 -0.12252691 0.99246519
vn 0 -0.71847524 0.69555254
vn 0 0.99968765 0.02499219
vn 0 0.99980006 0.019996052
vn 0 0.99980006 0.019996002
vn 0 -1 0
vn 0 0.99980006 -0.019996002
vn 0 0.99980006 -0.019996052
vn 0 0.99968765 -0.02499219
vn 0 -0.71847524 -0.69555254
vn 0 -0.12252621 -0.99246528
vn 1 0 0
usemtl mat_Global_e3b63687
f 34//5 46//5 47//5
f 47//5 35//5 34//5
f 31//10 43//10 46//10
f 46//10 34//10 31//10
f 27//4 39//4 43//4
f 43//4 31//4 27//4
f 26//9 38//9 39//9
f 39//9 27//9 26//9
f 25//8 37//8 38//8
f 38//8 26//8 25//8
f 28//3 40//3 37//3
f 37//3 25//3 28//3
f 29//2 41//2 40//2
f 40//2 28//2 29//2
f 42//7 41//7 29//7
f 29//7 30//7 42//7
f 44//7 42//7 30//7
f 30//7 32//7 44//7
f 44//12 32//12 33//12
f 33//12 45//12 44//12
f 48//11 45//11 33//11
f 33//11 36//11 48//11
f 35//6 47//6 48//6
f 48//6 36//6 35//6
f 45//13 46//13 43//13
f 43//13 42//13 45//13
f 47//13 46//13 48//13
f 46//13 45//13 48//13
f 42//13 44//13 45//13
f 40//13 41//13 42//13
f 42//13 43//13 40//13
f 43//13 39//13 40//13
f 40//13 39//13 37//13
f 39//13 38//13 37//13
f 28//1 25//1 27//1
f 25//1 26//1 27//1
f 30//1 29//1 28//1
f 28//1 31//1 30//1
f 28//1 27//1 31//1
f 35//1 36//1 34//1
f 36//1 33//1 34//1
f 33//1 32//1 30//1
f 30//1 31//1 33//1
f 33//1 31//1 34//1
f 22//5 34//5 35//5
f 35//5 23//5 22//5
f 19//10 31//10 34//10
f 34//10 22//10 19//10
f 15//4 27//4 31//4
f 31//4 19//4 15//4
f 14//9 26//9 27//9
f 27//9 15//9 14//9
f 13//8 25//8 26//8
f 26//8 14//8 13//8
f 16//3 28//3 25//3
f 25//3 13//3 16//3
f 17//2 29//2 28//2
f 28//2 16//2 17//2
f 29//7 17//7 18//7
f 18//7 30//7 29//7
f 30//7 18//7 20//7
f 20//7 32//7 30//7
f 32//12 20//12 21//12
f 21//12 33//12 32//12
f 36//11 33//11 21//11
f 21//11 24//11 36//11
f 23//6 35//6 36//6
f 36//6 24//6 23//6
f 33//13 34//13 31//13
f 31//13 30//13 33//13
f 35//13 34//13 36//13
f 34//13 33//13 36//13
f 30//13 32//13 33//13
f 28//13 29//13 30//13
f 30//13 31//13 28//13
f 31//13 27//13 28//13
f 28//13 27//13 25//13
f 27//13 26//13 25//13
f 16//1 13//1 15//1
f 13//1 14//1 15//1
f 18//1 17//1 16//1
f 16//1 19//1 18//1
f 16//1 15//1 19//1
f 23//1 24//1 22//1
f 24//1 21//1 22//1
f 21//1 20//1 18//1
f 18//1 19//1 21//1
f 21//1 19//1 22//1
f 10//5 22//5 23//5
f 23//5 11//5 10//5
f 7//10 19//10 22//10
f 22//10 10//10 7//10
f 3//4 15//4 19//4
f 19//4 7//4 3//4
f 2//9 14//9 15//9
f 15//9 3//9 2//9
f 1//8 13//8 14//8
f 14//8 2//8 1//8
f 4//3 16//3 13//3
f 13//3 1//3 4//3
f 5//2 17//2 16//2
f 16//2 4//2 5//2
f 17//7 5//7 6//7
f 6//7 18//7 17//7
f 18//7 6//7 8//7
f 8//7 20//7 18//7
f 21//12 20//12 8//12
f 8//12 9//12 21//12
f 21//11 9//11 12//11
f 12//11 24//11 21//11
f 11//6 23//6 24//6
f 24//6 12//6 11//6
f 21//13 22//13 19//13
f 19//13 18//13 21//13
f 23//13 22//13 24//13
f 22//13 21//13 24//13
f 18//13 20//13 21//13
f 16//13 17//13 18//13
f 18//13 19//13 16//13
f 19//13 15//13 16//13
f 16//13 15//13 13//13
f 15//13 14//13 13//13
f 4//1 1//1 3//1
f 1//1 2//1 3//1
f 6//1 5//1 4//1
f 4//1 7//1 6//1
f 4//1 3//1 7//1
f 11//1 12//1 10//1
f 12//1 9//1 10//1
f 9//1 8//1 6//1
f 6//1 7//1 9//1
f 9//1 7//1 10//1
