# created with pCon.planner

mtllib abutment1n.mtl

g mesh_0
v -35 -2.5507923 7.40176
v -35 -1.8007923 7.40176
v -35 -1.5507923 7.40176
v -35 -2.5507923 6.60176
v -35 -1.5507923 6.60176
v -35 -2.5507923 -8.79824
v -35 -1.5507923 -8.79824
v -35 -2.5507923 -9.59824
v -35 -1.8007923 -9.59824
v -35 -1.5507923 -9.59824
v -30.605462 -11.5 9.30176
v -30.605462 -10 9.30176
v -30.605462 -11.5 4.6017595
v -30.605462 -10 4.6017595
v -30.605462 -11.5 -6.7982396
v -30.605462 -10 -6.7982396
v -30.605462 -11.5 -11.49824
v -30.605462 -10 -11.49824
v -30.105463 -9.9 7.40176
v -30.105463 -9.9 6.60176
v -30.105463 -9.9 -8.79824
v -30.105463 -9.9 -9.59824
v -30.005462 -9.9 7.40176
v -30.005462 -9.9 6.60176
v -30.005462 -9.9 -8.79824
v -30.005462 -9.9 -9.59824
v -27 -2.0801585 7.40176
v -27 -1.8301585 7.40176
v -27 -4 6.60176
v -27 -1.8301585 6.60176
v -27 -4 -8.79824
v -27 -1.8301585 -8.79824
v -27 -2.0801585 -9.59824
v -27 -1.8301585 -9.59824
v -26.9 -11.5 4.6017595
v -26.9 -10 4.6017595
v -26.9 -11.5 -6.7982396
v -26.9 -10 -6.7982396
v -25 -1.9 6.60176
v -25 -3.15 6.60176
v -25 -9.9 6.60176
v -25 -5 6.60176
v -25 -3.15 6.60176
v -25 -1.9 6.60176
v -25 -1.9 6.60176
v -25 -9.9 6.60176
v -25 -5 6.60176
v -25 -3.15 6.60176
v -25 -9.9 6.60176
v -25 -9.9 6.60176
v -25 -9.9 6.60176
v -25 -1.9 -8.79824
v -25 -1.9 -8.79824
v -25 -1.9 -8.79824
v -25 -9.9 -8.79824
v -25 -9.9 -8.79824
v -25 -9.9 -8.79824
v -25 -9.9 -8.79824
v -25 -3.15 -8.79824
v -25 -9.9 -8.79824
v -25 -5 -8.79824
v -25 -3.15 -8.79824
v -25 -9.9 -8.79824
v -22 -9.9 7.40176
v -22 -2.2547623 7.40176
v -22 -9.9 6.60176
v -22 -3 6.60176
v -22 -2.0047623 6.60176
v -22 -9.9 -8.79824
v -22 -3 -8.79824
v -22 -2.0047623 -8.79824
v -22 -9.9 -9.59824
v -22 -2.2547623 -9.59824
v -20.2 -11.5 9.30176
v -20.2 -10 9.30176
v -20.2 -11.5 -11.49824
v -20.2 -10 -11.49824
vn -1 0 0
vn -1 0 0
vn -0.82707946 -0.56208502 0
vn -0.4472136 -0.89442719 0
vn -0.4472136 -0.89442719 0
vn -0.4472136 -0.89442719 0
vn -0.19611571 0.98058076 0
vn -0.05255868 0.99861784 0
vn -0.05255868 0.99861784 0
vn -0.05255868 0.99861784 0
vn -0.049937616 0.99875234 0
vn -0.049937616 0.99875234 0
vn -0.049937616 0.99875234 0
vn -0.033312674 -0.95395022 0.29810944
vn -0.033312675 -0.95395023 0.29810941
vn -0.033312675 -0.95395023 -0.29810941
vn -0.033312674 -0.95395022 -0.29810944
vn 0 0 1
vn 0 0.99861784 0.052558672
vn 0 0.99875235 0.049937471
vn 0 -1 0
vn 0 1 0
vn 0 0.99875235 -0.049937471
vn 0 0.99861784 -0.052558672
vn 0 0 -1
vn 0.033312674 0.95395022 0.29810944
vn 0.033312675 0.95395023 -0.29810941
vn 0.033312674 0.95395022 -0.29810944
vn 0.033312678 0.95395023 0.29810941
vn 0.033312678 0.95395022 -0.29810944
vn 0.034899495 0.99939083 0
vn 0.034899495 0.99939083 0
vn 0.034899495 0.99939083 0
vn 0.05546986 0.99846036 0
vn 1 0 0
vn 1 0 0
usemtl mat_Global_e3b63687
f 30//33 5//33 3//33
f 3//33 28//33 30//33
f 27//17 2//16 5//17
f 5//17 30//17 27//17
f 28//18 3//18 2//18
f 2//18 27//18 28//18
f 5//1 2//1 3//1
f 27//36 30//36 28//36
f 34//33 10//33 7//33
f 7//33 32//33 34//33
f 33//25 9//25 34//25
f 9//25 10//25 34//25
f 32//14 7//15 9//14
f 9//14 33//14 32//14
f 9//1 7//1 10//1
f 32//36 33//36 34//36
f 71//28 73//30 9//28
f 9//28 7//27 71//28
f 73//36 71//36 70//36
f 70//36 69//36 72//36
f 72//36 73//36 70//36
f 72//21 69//21 58//21
f 58//21 25//21 26//21
f 26//21 72//21 58//21
f 6//3 8//3 26//3
f 26//3 25//3 6//3
f 7//1 9//1 6//1
f 9//1 8//1 6//1
f 8//25 9//25 73//25
f 73//25 72//25 26//25
f 26//25 8//25 73//25
f 71//18 7//18 6//18
f 6//18 70//18 71//18
f 70//18 25//18 58//18
f 58//18 69//18 70//18
f 25//18 70//18 6//18
f 4//1 1//1 2//1
f 2//1 5//1 4//1
f 24//3 23//3 1//3
f 1//3 4//3 24//3
f 23//21 24//21 46//21
f 46//21 66//21 64//21
f 64//21 23//21 46//21
f 64//36 66//36 67//36
f 67//36 68//36 65//36
f 65//36 64//36 67//36
f 5//26 2//29 65//26
f 65//26 68//26 5//26
f 65//18 2//18 1//18
f 23//18 64//18 65//18
f 65//18 1//18 23//18
f 24//25 4//25 67//25
f 67//25 41//25 24//25
f 4//25 5//25 68//25
f 68//25 67//25 4//25
f 66//25 41//25 67//25
f 15//1 16//1 18//1
f 18//1 17//1 15//1
f 37//18 38//18 16//18
f 16//18 15//18 37//18
f 35//1 36//1 38//1
f 38//1 37//1 35//1
f 13//25 14//25 36//25
f 36//25 35//25 13//25
f 11//1 12//1 14//1
f 14//1 13//1 11//1
f 74//18 75//18 12//18
f 12//18 11//18 74//18
f 76//36 77//36 75//36
f 75//36 74//36 76//36
f 17//25 18//25 77//25
f 77//25 76//25 17//25
f 18//22 16//22 38//22
f 38//22 77//22 18//22
f 75//22 77//22 38//22
f 38//22 36//22 75//22
f 36//22 14//22 12//22
f 12//22 75//22 36//22
f 37//21 15//21 17//21
f 17//21 76//21 37//21
f 11//21 13//21 35//21
f 35//21 74//21 11//21
f 37//21 76//21 74//21
f 74//21 35//21 37//21
f 16//7 21//7 18//7
f 21//7 22//7 18//7
f 38//20 57//20 21//20
f 21//20 16//20 38//20
f 36//9 51//10 56//9
f 56//9 38//8 36//9
f 14//23 20//23 36//23
f 20//23 50//23 36//23
f 12//7 19//7 20//7
f 20//7 14//7 12//7
f 75//19 64//19 12//19
f 64//19 19//19 12//19
f 77//34 72//34 64//34
f 64//34 75//34 77//34
f 18//24 22//24 72//24
f 72//24 77//24 18//24
f 49//22 20//22 19//22
f 19//22 64//22 49//22
f 22//22 21//22 55//22
f 55//22 72//22 22//22
f 49//22 64//22 72//22
f 72//22 55//22 49//22
f 38//21 16//21 18//21
f 18//21 77//21 38//21
f 12//21 14//21 36//21
f 36//21 75//21 12//21
f 38//21 77//21 75//21
f 75//21 36//21 38//21
f 45//32 52//31 32//32
f 32//32 30//33 45//32
f 48//35 62//35 39//35
f 62//35 54//35 39//35
f 67//12 70//11 59//12
f 59//12 40//13 67//12
f 66//36 69//36 70//36
f 70//36 67//36 66//36
f 41//21 60//21 66//21
f 60//21 69//21 66//21
f 42//2 61//2 60//2
f 60//2 41//2 42//2
f 29//4 31//5 47//5
f 31//5 61//6 47//5
f 30//1 32//1 31//1
f 31//1 29//1 30//1
f 32//25 53//25 62//25
f 62//25 61//25 31//25
f 31//25 32//25 62//25
f 70//25 69//25 61//25
f 61//25 62//25 70//25
f 69//25 63//25 61//25
f 43//18 44//18 30//18
f 30//18 29//18 43//18
f 67//18 43//18 42//18
f 42//18 66//18 67//18
f 66//18 42//18 41//18
f 29//18 42//18 43//18
g mesh_1
v 75 -2.5507923 -9.59824
v 75 -1.8007923 -9.59824
v 75 -1.5507923 -9.59824
v 75 -2.5507923 -8.79824
v 75 -1.5507923 -8.79824
v 75 -2.5507923 6.60176
v 75 -1.5507923 6.60176
v 75 -2.5507923 7.40176
v 75 -1.8007923 7.40176
v 75 -1.5507923 7.40176
v 70.605462 -11.5 -11.59824
v 70.605462 -10 -11.59824
v 70.605462 -11.5 -7.79824
v 70.605462 -10 -7.79824
v 70.605462 -11.5 5.60176
v 70.605462 -10 5.60176
v 70.605462 -11.5 9.40176
v 70.605462 -10 9.40176
v 70.105463 -9.9 -9.59824
v 70.105463 -9.9 -8.79824
v 70.105463 -9.9 6.60176
v 70.105463 -9.9 7.40176
v 70.005462 -9.9 -9.59824
v 70.005462 -9.9 -8.79824
v 70.005462 -9.9 6.60176
v 70.005462 -9.9 7.40176
v 67 -2.0801585 -9.59824
v 67 -1.8301585 -9.59824
v 67 -4.1 -8.79824
v 67 -1.8301585 -8.79824
v 67 -11.5 -7.79824
v 67 -10 -7.79824
v 67 -11.5 5.60176
v 67 -10 5.60176
v 67 -4.1 6.60176
v 67 -1.8301585 6.60176
v 67 -2.0801585 7.40176
v 67 -1.8301585 7.40176
v 65 -1.9 -8.79824
v 65 -3.25 -8.79824
v 65 -9.9 -8.79824
v 65 -5.1 -8.79824
v 65 -3.25 -8.79824
v 65 -1.9 -8.79824
v 65 -1.9 -8.79824
v 65 -9.9 -8.79824
v 65 -5.1 -8.79824
v 65 -3.25 -8.79824
v 65 -9.9 -8.79824
v 65 -9.9 -8.79824
v 65 -9.9 -8.79824
v 65 -1.9 6.60176
v 65 -1.9 6.60176
v 65 -1.9 6.60176
v 65 -9.9 6.60176
v 65 -9.9 6.60176
v 65 -9.9 6.60176
v 65 -3.25 6.60176
v 65 -9.9 6.60176
v 65 -9.9 6.60176
v 65 -5.1 6.60176
v 65 -3.25 6.60176
v 65 -5.1 6.60176
v 62 -9.9 -9.59824
v 62 -2.2547623 -9.59824
v 62 -9.9 -8.79824
v 62 -3.1 -8.79824
v 62 -2.0047623 -8.79824
v 62 -9.9 6.60176
v 62 -3.1 6.60176
v 62 -2.0047623 6.60176
v 62 -9.9 7.40176
v 62 -2.2547623 7.40176
v 60.2 -11.5 -11.59824
v 60.2 -10 -11.59824
v 60.2 -11.5 9.40176
v 60.2 -10 9.40176
vn 1 0 0
vn 1 0 0
vn 0.82707946 -0.56208502 0
vn 0.4472136 -0.89442719 0
vn 0.4472136 -0.89442719 0
vn 0.4472136 -0.89442719 0
vn 0.19611571 0.98058076 0
vn 0.049937616 0.99875234 0
vn 0.049937616 0.99875234 0
vn 0.049937616 0.99875234 0
vn 0.049937471 0.99875235 0
vn 0.049937471 0.99875235 0
vn 0.049937471 0.99875235 0
vn 0.033312674 -0.95395022 -0.29810944
vn 0.033312675 -0.95395023 -0.29810941
vn 0.033312675 -0.95395023 0.29810941
vn 0.033312674 -0.95395022 0.29810944
vn 0 0 -1
vn 0 0.99503722 -0.099503437
vn 0 0.99875235 -0.049937471
vn 0 -1 0
vn 0 1 0
vn 0 0.99875235 0.049937471
vn 0 0.99503722 0.099503437
vn 0 0 1
vn -0.033312674 0.95395022 -0.29810944
vn -0.033312675 0.95395023 0.29810941
vn -0.033312674 0.95395022 0.29810944
vn -0.033312678 0.95395023 -0.29810941
vn -0.033312678 0.95395022 0.29810944
vn -0.034899495 0.99939083 0
vn -0.034899495 0.99939083 0
vn -0.034899495 0.99939083 0
vn -0.05546986 0.99846036 0
vn -1 0 0
vn -1 0 0
usemtl mat_Global_e3b63687
f 107//69 82//69 80//69
f 80//69 105//69 107//69
f 104//53 79//52 82//53
f 82//53 107//53 104//53
f 105//54 80//54 79//54
f 79//54 104//54 105//54
f 82//37 79//37 80//37
f 104//72 107//72 105//72
f 115//69 87//69 84//69
f 84//69 113//69 115//69
f 114//61 86//61 115//61
f 86//61 87//61 115//61
f 113//50 84//51 86//50
f 86//50 114//50 113//50
f 86//37 84//37 87//37
f 113//72 114//72 115//72
f 148//64 150//66 86//64
f 86//64 84//63 148//64
f 150//72 148//72 147//72
f 147//72 146//72 149//72
f 149//72 150//72 147//72
f 149//57 146//57 134//57
f 134//57 102//57 103//57
f 103//57 149//57 134//57
f 83//39 85//39 103//39
f 103//39 102//39 83//39
f 84//37 86//37 83//37
f 86//37 85//37 83//37
f 85//61 86//61 150//61
f 150//61 149//61 103//61
f 103//61 85//61 150//61
f 148//54 84//54 83//54
f 83//54 147//54 148//54
f 147//54 102//54 134//54
f 134//54 146//54 147//54
f 102//54 147//54 83//54
f 81//37 78//37 79//37
f 79//37 82//37 81//37
f 101//39 100//39 78//39
f 78//39 81//39 101//39
f 100//57 101//57 123//57
f 123//57 143//57 141//57
f 141//57 100//57 123//57
f 141//72 143//72 144//72
f 144//72 145//72 142//72
f 142//72 141//72 144//72
f 82//62 79//65 142//62
f 142//62 145//62 82//62
f 142//54 79//54 78//54
f 100//54 141//54 142//54
f 142//54 78//54 100//54
f 101//61 81//61 144//61
f 144//61 118//61 101//61
f 81//61 82//61 145//61
f 145//61 144//61 81//61
f 143//61 118//61 144//61
f 92//37 93//37 95//37
f 95//37 94//37 92//37
f 110//54 111//54 93//54
f 93//54 92//54 110//54
f 108//37 109//37 111//37
f 111//37 110//37 108//37
f 90//61 91//61 109//61
f 109//61 108//61 90//61
f 88//37 89//37 91//37
f 91//37 90//37 88//37
f 151//54 152//54 89//54
f 89//54 88//54 151//54
f 153//72 154//72 152//72
f 152//72 151//72 153//72
f 94//61 95//61 154//61
f 154//61 153//61 94//61
f 95//58 93//58 111//58
f 111//58 154//58 95//58
f 152//58 154//58 111//58
f 111//58 109//58 152//58
f 109//58 91//58 89//58
f 89//58 152//58 109//58
f 110//57 92//57 94//57
f 94//57 153//57 110//57
f 88//57 90//57 108//57
f 108//57 151//57 88//57
f 110//57 153//57 151//57
f 151//57 108//57 110//57
f 93//43 98//43 99//43
f 99//43 95//43 93//43
f 111//55 132//55 98//55
f 98//55 93//55 111//55
f 109//48 128//49 133//48
f 133//48 111//47 109//48
f 91//60 97//60 109//60
f 97//60 126//60 109//60
f 89//43 96//43 91//43
f 96//43 97//43 91//43
f 152//56 141//56 89//56
f 141//56 96//56 89//56
f 154//70 149//70 141//70
f 141//70 152//70 154//70
f 95//59 99//59 149//59
f 149//59 154//59 95//59
f 127//58 97//58 96//58
f 96//58 141//58 127//58
f 99//58 98//58 132//58
f 132//58 149//58 99//58
f 127//58 141//58 149//58
f 149//58 132//58 127//58
f 111//57 93//57 95//57
f 95//57 154//57 111//57
f 89//57 91//57 109//57
f 109//57 152//57 89//57
f 111//57 154//57 152//57
f 152//57 109//57 111//57
f 122//68 129//67 113//68
f 113//68 107//69 122//68
f 125//71 139//71 116//71
f 139//71 130//71 116//71
f 144//45 147//44 135//45
f 135//45 117//46 144//45
f 143//72 146//72 147//72
f 147//72 144//72 143//72
f 118//57 137//57 143//57
f 137//57 146//57 143//57
f 119//38 138//38 137//38
f 137//38 118//38 119//38
f 106//40 112//41 124//41
f 112//41 138//42 124//41
f 107//37 113//37 112//37
f 112//37 106//37 107//37
f 113//61 131//61 139//61
f 139//61 140//61 112//61
f 112//61 113//61 139//61
f 147//61 146//61 140//61
f 140//61 139//61 147//61
f 146//61 136//61 140//61
f 120//54 121//54 107//54
f 107//54 106//54 120//54
f 144//54 120//54 119//54
f 119//54 143//54 144//54
f 143//54 119//54 118//54
f 106//54 119//54 120//54
